<svg xmlns="http://www.w3.org/2000/svg" viewBox="0 0 64 64">
  <defs>
    <linearGradient id="bg" x1="0" y1="0" x2="1" y2="1">
      <stop offset="0%" stop-color="#38bdf8"/>
      <stop offset="100%" stop-color="#0ea5e9"/>
    </linearGradient>
  </defs>
  <rect width="64" height="64" rx="14" fill="url(#bg)"/>
  <circle cx="24" cy="24" r="11" fill="#fde047"/>
  <g fill="none" stroke="#fde047" stroke-width="2" stroke-linecap="round">
    <line x1="24" y1="7" x2="24" y2="2"/>
    <line x1="24" y1="46" x2="24" y2="41"/>
    <line x1="7" y1="24" x2="2" y2="24"/>
    <line x1="46" y1="24" x2="41" y2="24"/>
    <line x1="12" y1="12" x2="8" y2="8"/>
    <line x1="36" y1="36" x2="40" y2="40"/>
    <line x1="36" y1="12" x2="40" y2="8"/>
    <line x1="12" y1="36" x2="8" y2="40"/>
  </g>
  <path d="M42 47H19a9 9 0 1 1 2.2-17.7A11.5 11.5 0 0 1 44 31a8 8 0 0 1-2 16z" fill="#f8fafc"/>
</svg>
